<svg width="57" height="57" viewBox="0 0 57 57" fill="none" xmlns="http://www.w3.org/2000/svg">
<path d="M46.4916 28.4831C47.8358 30.0568 49.0489 31.6634 49.9669 33.4994C50.5898 34.7453 51.0488 36.0239 51.18 37.4009C51.4095 40.4173 49.9013 42.6467 47.0161 43.6631C45.0818 44.3188 43.049 44.4172 41.049 44.2533C39.9343 44.1549 38.8196 43.991 37.7049 43.8598C37.4754 44.45 37.2131 45.0401 37.0163 45.6631C36.9836 45.7942 37.0491 45.9909 37.1475 46.1221C38.1639 47.3352 38.3278 48.8433 37.5081 50.122C36.7213 51.3679 35.2787 51.9252 33.8033 51.4662C33.4754 51.3679 33.3115 51.4662 33.1148 51.6629C31.9017 52.7777 30.5247 53.5318 28.8198 53.499C27.3116 53.499 26.033 52.876 24.8855 51.9252C23.2134 50.5154 22.0986 48.6794 21.1806 46.745C20.7544 45.7942 20.3937 44.8434 20.0003 43.9582C18.3938 44.0893 16.82 44.286 15.2135 44.3516C13.7709 44.45 12.3611 44.2533 11.0169 43.827C7.37761 42.7123 5.7383 39.7615 6.75468 36.0895C7.44319 33.4994 8.91857 31.3027 10.5907 29.27C10.7546 29.0732 10.9185 28.8765 11.0825 28.647C11.1152 28.6142 11.1152 28.5814 11.1152 28.5159C10.7218 28.0241 10.2956 27.4667 9.86937 26.9749C9.77101 26.8766 9.50872 26.8438 9.312 26.8766C7.83662 27.0733 6.52517 26.4176 5.86945 25.1717C5.21373 23.9258 5.44323 22.4176 6.4596 21.3685C6.72189 21.1062 6.72189 20.8767 6.65632 20.5816C6.42681 19.5325 6.36124 18.4505 6.65632 17.4014C7.31204 15.008 9.04971 13.7949 11.312 13.1719C13.9349 12.4506 16.5578 12.6801 19.2134 13.1064C19.4429 13.1391 19.6724 13.1719 19.9019 13.2375C19.9019 13.2375 19.9347 13.2375 20.0003 13.2047C20.361 12.3523 20.6888 11.4343 21.0823 10.5818C21.8035 8.9753 22.6888 7.46713 23.8691 6.15568C25.1805 4.58194 26.7543 3.5 28.8526 3.5C30.6558 3.5 32.1312 4.35244 33.3771 5.59832C35.2787 7.49992 36.4262 9.86052 37.377 12.3195C37.4754 12.549 37.5409 12.8113 37.6393 13.0736C37.6393 13.1064 37.7049 13.1064 37.6065 13.0408C39.4753 12.9096 41.2458 12.7457 42.9834 12.6801C44.3277 12.6146 45.6719 12.8769 46.9506 13.3031C50.1964 14.4178 51.7374 17.1718 50.9833 20.516C50.8849 20.9423 50.9177 21.2373 51.2456 21.598C52.098 22.5816 52.1964 24.0242 51.5734 25.2045C50.9177 26.3848 49.639 27.0405 48.2948 26.8438C47.9669 26.811 47.7702 26.8766 47.6063 27.1389C47.2456 27.5651 46.885 27.9913 46.4916 28.4831ZM38.5245 28.4503C38.4262 26.7782 38.3278 25.0733 38.1966 23.4012C38.1966 23.2045 38.0655 22.975 37.9016 22.8439C35.1475 20.8767 32.2296 19.1718 29.1149 17.762C28.9509 17.6964 28.6559 17.6964 28.4919 17.762C25.4428 19.2046 22.5248 20.8767 19.7708 22.8439C19.6069 22.975 19.4429 23.2045 19.4429 23.434C19.1151 26.811 19.1151 30.1552 19.4429 33.5322C19.4757 33.7289 19.6069 33.9912 19.7708 34.1223C22.4921 36.0895 25.41 37.7616 28.4591 39.1386C28.6559 39.237 28.9837 39.237 29.1804 39.1386C32.2296 37.7616 35.1475 36.0895 37.8688 34.1223C38.0327 33.9912 38.1966 33.7617 38.1966 33.5322C38.3278 31.8273 38.4262 30.1552 38.5245 28.4503ZM36.295 13.4014C35.6065 11.9588 34.9508 10.5162 34.1967 9.13923C33.541 7.92614 32.6886 6.87698 31.5738 6.02454C29.7706 4.61473 27.8362 4.64752 26.033 6.02454C25.0166 6.81141 24.2297 7.82778 23.5412 8.90972C22.656 10.3523 22.0003 11.8605 21.4429 13.4342C21.5413 13.467 21.574 13.4998 21.6396 13.5326C23.9347 14.3194 26.2297 15.1063 28.5247 15.8932C28.6886 15.9588 28.9509 15.926 29.1149 15.8604C30.0001 15.5325 30.8198 15.1391 31.705 14.844C33.1804 14.3522 34.6557 13.926 36.295 13.4014ZM19.5085 42.3517C19.4757 42.1549 19.4429 41.991 19.4102 41.8599C18.9839 39.5976 18.5249 37.3682 18.0659 35.1059C18.0003 34.8764 17.8692 34.6141 17.6725 34.4502C15.9676 32.942 14.2299 31.4338 12.4923 29.9257C12.3939 29.8273 12.2628 29.729 12.1316 29.6306C10.7218 31.2371 9.44315 32.9748 8.65628 34.9748C8.32841 35.7944 8.06613 36.6469 8.00055 37.4993C7.77105 39.8599 8.88578 41.4992 11.2464 42.2533C13.9676 43.1385 16.7217 42.8434 19.5085 42.3517ZM38.1639 42.3844C39.1474 42.5156 40.0983 42.6795 41.049 42.7451C43.049 42.909 45.049 42.8762 46.9506 42.0566C48.8522 41.2697 49.7374 39.8599 49.7046 37.8272C49.6718 36.3846 49.1472 35.1059 48.4915 33.8272C47.6719 32.2863 46.6555 30.9093 45.5408 29.5978C45.4752 29.6306 45.4096 29.6306 45.4096 29.6634C43.5408 31.2699 41.672 32.9092 39.836 34.5485C39.7048 34.6469 39.6392 34.8764 39.6065 35.0403C39.4753 35.8928 39.377 36.7452 39.213 37.5977C38.8852 39.1714 38.5245 40.7451 38.1639 42.3844ZM36.1967 43.4664C36.0983 43.4008 36.0328 43.4008 36 43.368C33.7049 42.5812 31.4099 41.7943 29.0821 41.0074C28.8854 40.9418 28.6559 40.9746 28.4591 41.0402C26.2953 41.7615 24.1314 42.5156 21.9347 43.2697C21.7708 43.3352 21.6068 43.368 21.3445 43.4664C22.0658 44.9418 22.656 46.3516 23.4101 47.7286C24.1969 49.1712 25.2461 50.4171 26.6559 51.3023C28.4591 52.3842 30.6558 52.0236 32.1312 50.3187C31.3115 49.1384 31.1148 47.8925 31.8689 46.6139C32.6886 45.2696 33.9344 44.8106 35.5082 45.0729C35.7705 44.5811 36 44.0238 36.1967 43.4664ZM12.066 27.2372C14.0332 25.5979 15.9348 23.9914 17.8364 22.3849C17.9676 22.2865 18.0331 22.0898 18.0659 21.8931C18.361 20.2865 18.6233 18.6472 18.9184 17.0079C19.0823 16.1883 19.3118 15.4014 19.5085 14.5162C18.4921 14.385 17.5413 14.2211 16.5905 14.1555C14.5906 13.9916 12.5906 14.0572 10.689 14.844C8.32841 15.8276 7.44319 17.9915 8.16448 20.3193C9.70544 20.1554 10.9841 20.68 11.6726 22.1226C12.3611 23.4996 12.0333 24.7782 10.9841 25.9258C11.4103 26.4503 11.771 26.8766 12.066 27.2372ZM49.639 20.3849C49.639 19.5652 49.7374 18.7456 49.6063 17.9915C49.3112 16.1555 48.0653 15.1719 46.3932 14.6473C43.6392 13.7621 40.8851 14.0899 38.1311 14.549C38.1311 14.6473 38.1311 14.7129 38.1639 14.7457C38.6229 17.1391 39.0819 19.5652 39.5737 21.9586C39.6065 22.1226 39.7704 22.3193 39.9015 22.4504C40.7212 23.1389 41.6064 23.7619 42.3933 24.4832C43.4424 25.4012 44.426 26.352 45.508 27.3356C45.8686 26.9094 46.1965 26.4831 46.5243 26.0569C45.4096 24.811 45.1145 23.5652 45.6719 22.3193C46.426 20.7128 47.7702 20.1554 49.639 20.3849ZM39.8687 24.2209C39.8687 27.1389 39.8687 29.8601 39.8687 32.7453C41.4753 31.3027 42.9834 29.9257 44.59 28.4831C42.9506 27.0077 41.4425 25.6307 39.8687 24.2209ZM17.7708 32.7125C17.7708 29.8273 17.7708 27.0733 17.7708 24.1881C16.1643 25.6307 14.6562 27.0077 13.0496 28.4503C14.6889 29.9257 16.1971 31.3027 17.7708 32.7125ZM26.951 40.1878C24.4592 38.7452 22.0986 37.3682 19.6069 35.9583C20.0331 38.0239 20.4593 40.0238 20.9183 42.1549C23.0166 41.4336 24.951 40.8107 26.951 40.1878ZM26.8854 16.8112C24.951 16.0571 23.0166 15.3686 20.9183 14.9096C20.4921 16.9751 20.0659 18.9751 19.6397 21.0078C22.0986 19.5652 24.4592 18.1882 26.8854 16.8112ZM38.0327 21.0078C37.6065 18.9423 37.1803 16.9423 36.7213 14.8112C34.6557 15.467 32.6886 16.1227 30.6886 16.7456C33.1476 18.1882 35.5082 19.5325 38.0327 21.0078ZM30.787 40.1222C32.6886 40.8763 34.6557 41.5648 36.6885 41.991C37.2458 39.9583 37.7049 37.9911 37.9344 35.9911C35.5082 37.3682 33.1804 38.7452 30.787 40.1222ZM34.7213 50.0564C35.7049 50.0564 36.4918 49.2696 36.5246 48.286C36.5246 47.3024 35.7049 46.4827 34.7213 46.4827C33.7377 46.4827 32.9181 47.3024 32.9509 48.3187C32.9509 49.3023 33.7377 50.0892 34.7213 50.0564ZM6.98418 23.5652C6.98418 24.5487 7.77105 25.3684 8.72185 25.3684C9.70544 25.3684 10.5579 24.5487 10.5579 23.5652C10.5579 22.5816 9.73822 21.7619 8.75464 21.7947C7.77105 21.7947 6.98418 22.5816 6.98418 23.5652ZM46.9178 23.5324C46.885 24.5487 47.6719 25.3684 48.6555 25.3684C49.639 25.4012 50.4587 24.5487 50.4587 23.5652C50.4587 22.5816 49.6718 21.7947 48.6882 21.7947C47.7374 21.7947 46.9506 22.5488 46.9178 23.5324ZM23.0166 28.4175C23.0166 25.27 25.6395 22.6471 28.787 22.6471C32.0001 22.6471 34.5902 25.2373 34.5902 28.4831C34.5902 31.6634 31.9673 34.2535 28.7542 34.2535C25.6067 34.2535 23.0166 31.6306 23.0166 28.4175ZM24.492 28.4831C24.492 30.8437 26.4592 32.8109 28.8198 32.7781C31.2132 32.7781 33.1148 30.8109 33.1148 28.4503C33.1148 26.0897 31.1476 24.1553 28.787 24.1553C26.4264 24.1553 24.492 26.0897 24.492 28.4831ZM31.3771 27.729C30.9509 27.6962 30.623 27.9913 30.5903 28.4831C30.5575 29.1388 30.2296 29.6306 29.705 30.024C29.2788 30.3191 29.2132 30.7126 29.4427 31.0732C29.6722 31.4338 30.1312 31.4994 30.5575 31.2043C31.4755 30.5814 31.9673 29.729 32.0328 28.7126C32.0984 28.1224 31.8361 27.7618 31.3771 27.729Z" fill="white"/>
</svg>
