<svg width="56" height="56" viewBox="0 0 56 56" fill="none" xmlns="http://www.w3.org/2000/svg">
<path d="M52.948 33.0907C52.701 33.3378 52.4539 33.5848 52.1939 33.8188C52.0769 33.9228 51.9208 34.0009 51.7778 34.0659C50.7897 34.5859 49.9705 35.171 49.5675 36.3412C49.3074 37.0693 48.6573 37.7324 48.0332 38.2525C46.668 39.3707 45.6539 40.6969 44.8347 42.2441C41.7012 48.1601 36.8125 51.6706 30.1685 52.5937C24.3566 53.3999 19.5458 51.3846 15.6192 47.1329C15.3852 46.8859 15.1641 46.7688 14.8261 46.7558C10.8085 46.6258 7.10288 45.4686 3.69635 43.3363C2.83822 42.8032 2.77321 42.1661 3.50132 41.49C4.48948 40.5669 5.62065 39.8778 6.88185 39.4227C6.99887 39.3837 7.11588 39.3317 7.27191 39.2797C7.03787 37.9145 6.98586 36.5493 7.29791 35.21C7.44093 34.612 7.64897 34.0269 7.844 33.4418C7.98702 33.0257 8.27306 32.7397 8.72813 32.7007C9.18321 32.6616 9.48225 32.9087 9.71629 33.2857C11.6666 36.4842 14.501 38.5256 18.0376 39.6567C18.4016 39.7738 18.7917 39.8648 19.1688 39.9688C19.3248 40.0078 19.4808 40.0208 19.7799 40.0728C19.4288 39.7608 19.1558 39.5267 18.8957 39.2797C15.3202 35.9902 12.5117 32.1546 10.7044 27.6169C10.3924 26.8237 10.2104 25.9656 10.1324 25.1205C10.0023 23.6903 10.5094 22.9881 11.8356 22.4941C11.7576 21.948 11.6276 21.4149 11.5886 20.8688C11.4976 19.3996 11.9266 18.7495 13.2268 18.2034C12.9668 17.3193 12.6677 16.4481 12.4467 15.551C12.3427 15.1349 12.3297 14.6799 12.3427 14.2508C12.3817 13.2626 12.8108 12.5085 13.7989 12.1575C13.5779 11.3773 13.3308 10.6102 13.1618 9.8171C13.0708 9.37504 13.0448 8.90696 13.0708 8.46489C13.1358 6.99567 14.306 6.07252 15.7232 6.51459C16.6464 6.80064 17.5565 7.26871 18.3626 7.81479C20.547 9.31003 22.3673 11.2213 24.1225 13.1846C24.2655 13.3407 24.3956 13.4967 24.6036 13.7307C24.6686 13.0936 24.6946 12.5475 24.7856 12.0014C24.8636 11.5464 24.9677 11.0783 25.1367 10.6362C25.5267 9.62207 26.2158 8.98498 27.36 9.02398C27.451 8.23086 27.464 7.43774 27.6331 6.69662C27.7631 6.08553 27.9841 5.47443 28.3092 4.94135C28.9073 3.9792 29.9734 3.73216 30.9486 4.30425C31.4427 4.59029 31.9107 4.98035 32.2878 5.42242C33.705 7.07368 34.5631 9.03698 35.4083 11.0133C35.6293 11.5204 35.3433 12.0665 34.8622 12.2615C34.3551 12.4565 33.861 12.2355 33.588 11.6764C33.0029 10.4932 32.4568 9.31003 31.8327 8.15285C31.5077 7.55475 31.0656 7.03467 30.6495 6.50159C30.4805 6.29356 30.2335 6.15054 29.9084 5.87749C29.7524 6.44958 29.5574 6.90465 29.5184 7.35972C29.4534 8.29587 29.4794 9.24502 29.4664 10.1812C29.4664 10.3242 29.4924 10.4672 29.4924 10.6232C29.5054 11.0523 29.3363 11.3903 28.9333 11.5724C28.5692 11.7414 28.2182 11.6894 27.8801 11.4424C27.113 10.8703 27.048 10.8963 26.8399 11.8324C26.5019 13.2756 26.6319 14.7449 26.7879 16.2011C26.8009 16.3701 26.97 16.5391 27.087 16.6822C29.4273 19.8027 31.4297 23.1182 32.7429 26.7977C33.445 28.787 33.861 30.8284 33.9 32.9477C33.9 33.0777 33.913 33.1947 33.926 33.4158C34.4981 32.9737 35.0052 32.5706 35.5123 32.1806C35.9934 31.8035 36.4744 31.4005 36.9815 31.0494C37.3456 30.8024 37.4626 30.4903 37.4886 30.0742C37.6836 26.6807 37.2025 23.3652 36.4614 20.0757C36.3184 19.4386 36.5134 18.9575 36.9945 18.7625C37.5666 18.5285 38.1907 18.8405 38.3337 19.5036C38.6328 20.9468 38.9578 22.3901 39.1268 23.8593C39.3219 25.4975 39.3739 27.1618 39.4909 28.8131C39.4909 28.8911 39.5169 28.9691 39.5299 29.0991C39.842 28.8651 40.115 28.67 40.388 28.475C43.4565 26.2387 47.4871 27.0318 49.5025 30.2433C49.6065 30.4123 49.7755 30.5683 49.9575 30.6593C50.6726 31.0494 51.4138 31.3744 52.1159 31.7775C52.4409 31.9595 52.701 32.2456 53 32.4926C52.948 32.7007 52.948 32.8957 52.948 33.0907ZM14.254 14.0298C14.293 14.5238 14.254 14.9659 14.384 15.343C14.8391 16.5652 15.3462 17.7743 15.8532 18.9835C16.0353 19.4256 16.1133 19.8287 15.7752 20.2057C15.4372 20.5828 15.0211 20.5958 14.579 20.4268C14.267 20.3097 13.9419 20.2447 13.5129 20.1147C13.5389 20.5828 13.4999 20.9468 13.5909 21.2719C13.7599 21.948 13.994 22.6111 14.228 23.2612C14.384 23.6903 14.397 24.0933 14.059 24.4314C13.7339 24.7564 13.3439 24.7694 12.9278 24.6394C12.6677 24.5614 12.4077 24.5224 12.0567 24.4314C12.0567 24.7174 12.0176 24.9385 12.0697 25.1335C12.2257 25.8226 12.3427 26.5507 12.6157 27.1878C14.436 31.5175 17.1664 35.184 20.69 38.2785C21.8862 39.3187 23.1734 40.2288 24.6816 40.7359C27.243 41.607 29.5834 40.6709 30.8576 38.2785C31.4947 37.0823 31.7807 35.7821 31.8717 34.4429C32.0798 31.2834 31.3516 28.319 30.0644 25.4715C27.6461 20.1147 24.0315 15.629 19.8189 11.5984C18.7527 10.5712 17.5045 9.72609 16.2953 8.84195C15.9443 8.58191 15.4892 8.4909 14.9431 8.26986C14.9821 8.78995 14.9431 9.18001 15.0601 9.51806C15.4242 10.5712 15.8142 11.6244 16.2433 12.6515C16.4253 13.1066 16.5293 13.5227 16.1783 13.9257C15.8402 14.3028 15.4242 14.3158 14.9691 14.1598C14.7871 14.1078 14.579 14.0948 14.254 14.0298ZM14.8261 42.8552C15.4502 43.7134 15.9703 44.5455 16.6074 45.2996C19.5718 48.8102 23.2774 50.9295 27.9451 50.7995C34.6672 50.6174 39.7249 47.497 42.9624 41.607C44.0026 39.7087 45.1858 38.0185 46.9021 36.6663C48.1502 35.6781 48.5923 34.2479 48.2933 32.6877C47.6952 29.5022 44.0936 28.1369 41.4802 30.0872C38.9318 31.9855 36.4224 33.9619 33.913 35.9122C33.744 36.0422 33.64 36.2892 33.562 36.5102C33.3149 37.2254 33.1459 37.9795 32.8469 38.6816C31.5987 41.529 29.1023 43.1543 26.2419 43.0373C24.8636 42.9722 23.6154 42.5042 22.4063 41.8801C22.1982 41.7761 21.9122 41.7501 21.6911 41.7891C20.716 41.9581 19.7538 42.2181 18.7787 42.3742C17.5045 42.5562 16.2303 42.6862 14.8261 42.8552ZM9.1702 35.9642C9.1312 36.2112 9.06619 36.3672 9.07919 36.5232C9.1572 37.4984 9.19621 38.4996 9.36523 39.4617C9.53426 40.3979 9.35223 40.7749 8.41609 41.0089C7.45394 41.243 6.5438 41.62 5.68566 42.2571C8.22106 43.6354 10.8475 44.4805 13.7079 44.7405C13.2658 43.9214 12.8498 43.1673 12.4597 42.4002C12.0436 41.568 12.4727 40.9049 13.4089 40.8789C14.033 40.8659 14.6441 40.8789 15.2682 40.8789C15.2682 40.8269 15.2812 40.7619 15.2812 40.7099C12.9018 39.6177 10.8735 38.0705 9.1702 35.9642ZM37.0075 15.512C37.0335 14.9789 36.5785 14.4978 36.0324 14.4978C35.5123 14.4978 35.0832 14.9269 35.0702 15.46C35.0702 16.0061 35.4733 16.4221 36.0064 16.4351C36.5525 16.4481 36.9815 16.0451 37.0075 15.512ZM45.7969 33.1427C45.8099 32.6096 45.3418 32.1286 44.8087 32.1416C44.2887 32.1416 43.8596 32.5836 43.8596 33.1167C43.8596 33.6628 44.2626 34.0789 44.8087 34.0789C45.3418 34.0919 45.7839 33.6758 45.7969 33.1427Z" fill="white"/>
</svg>
