<svg width="56" height="56" viewBox="0 0 56 56" fill="none" xmlns="http://www.w3.org/2000/svg">
<path d="M53 19.2942C52.7786 19.6978 52.4271 19.802 51.9844 19.802C49.849 19.7889 47.7266 19.7889 45.5912 19.802C45.3308 19.802 45.0443 19.8801 44.823 20.0233C43.6511 20.7655 42.3881 21.1822 41.0079 21.1822C39.198 21.1822 37.4012 21.1952 35.5913 21.1691C34.4324 21.1561 33.4038 20.7264 32.4793 20.0494C32.271 19.9061 31.9845 19.802 31.7372 19.802C29.0809 19.7889 26.4247 19.7369 23.7815 19.815C21.4117 19.8801 19.8753 17.9791 20.1096 16.0911C20.1096 16.039 20.0966 15.9999 20.0966 15.8827C19.1982 16.1952 18.3128 16.5077 17.4404 16.8202C14.0029 18.0312 10.5785 19.2421 7.141 20.44C4.96654 21.1952 2.9353 19.6587 3.13062 17.4062C3.1827 16.4166 3.67749 15.6353 4.54987 15.1796C8.02641 13.3567 11.529 11.5468 15.0185 9.73695C15.4873 9.48955 15.9039 9.61976 16.0993 10.0234C16.2946 10.427 16.1383 10.8046 15.6045 11.0781C12.4665 12.7187 9.30244 14.3593 6.1384 15.9869C5.90403 16.1041 5.68268 16.2213 5.44831 16.3515C4.64102 16.7942 4.32852 17.5494 4.65404 18.3046C4.97956 19.0468 5.74778 19.3593 6.62017 19.0598C8.74255 18.3176 10.8519 17.5754 12.9613 16.8332C15.5524 15.9218 18.1435 15.0103 20.7346 14.0989C20.9169 14.0338 21.1122 13.9817 21.2685 13.8645C22.0367 13.2395 22.9091 13.0703 23.8726 13.0833C25.982 13.0963 28.1044 13.0963 30.2137 13.0703C30.4741 13.0703 30.7606 12.914 30.9689 12.7578C31.2944 12.5104 31.5418 12.1848 31.8413 11.9114C32.1799 11.5989 32.5965 11.5989 32.896 11.8984C33.1825 12.1848 33.1825 12.6145 32.87 12.9531C32.4663 13.3828 32.0887 13.8385 31.62 14.177C31.3075 14.3984 30.8517 14.5416 30.4611 14.5416C28.1695 14.5807 25.8778 14.5546 23.5732 14.5546C22.4534 14.5546 21.62 15.2577 21.5419 16.2603C21.4508 17.4322 22.2711 18.3306 23.482 18.3306C26.3075 18.3436 29.146 18.3436 31.9715 18.3306C32.4793 18.3306 32.87 18.4478 33.2476 18.7994C33.9116 19.3983 34.7059 19.7108 35.6043 19.7238C37.4923 19.7369 39.3803 19.7369 41.2683 19.7238C42.2839 19.7108 43.2084 19.3462 44.0417 18.7733C44.4714 18.4739 44.9272 18.3436 45.461 18.3436C47.6224 18.3567 49.7839 18.3567 51.9583 18.3436C52.401 18.3436 52.7526 18.4478 53 18.8254C53 18.9686 53 19.1379 53 19.2942ZM53 8.65623C52.7786 8.23956 52.4401 8.1354 51.9844 8.14842C49.25 8.16144 46.5157 8.16144 43.7813 8.14842C43.547 8.14842 43.2605 8.0703 43.0782 7.92707C41.5027 6.62499 39.7058 6 37.6746 6C33.2476 6.01302 28.8205 6.01302 24.3935 6C23.1044 6 21.8674 6.23437 20.7086 6.80729C19.8102 7.24999 18.9117 7.71874 18.0263 8.18748C17.5576 8.43488 17.4013 8.83852 17.5836 9.22914C17.7789 9.63278 18.2086 9.73695 18.7164 9.47653C19.4456 9.11195 20.1617 8.74737 20.8779 8.35675C21.9977 7.74478 23.1956 7.45832 24.4846 7.47134C28.8335 7.48436 33.1825 7.49738 37.5184 7.47134C39.3673 7.45832 40.9558 8.03123 42.349 9.22914C42.6095 9.45049 43.0131 9.60674 43.3516 9.60674C46.2162 9.63278 49.0808 9.61976 51.9453 9.63278C52.388 9.63278 52.7396 9.5156 52.987 9.15102C53 8.98175 53 8.81248 53 8.65623ZM35.9168 40.2836C35.9559 38.2654 34.5106 36.794 32.4793 36.781C31.8153 36.781 31.1512 36.781 30.4741 36.781C29.9012 36.781 29.5627 37.0414 29.5497 37.4971C29.5366 37.9659 29.8882 38.2393 30.4872 38.2523C31.2033 38.2523 31.9194 38.2393 32.6356 38.2654C33.6512 38.2914 34.4324 39.1117 34.4455 40.1273C34.4455 41.2341 33.6252 42.0284 32.4273 42.0414C30.1226 42.0544 27.8049 42.0284 25.5002 42.0544C25.1226 42.0544 24.6929 42.1976 24.3804 42.406C23.9117 42.7445 23.5341 43.2132 23.1305 43.6299C22.818 43.9554 22.8049 44.3851 23.0914 44.6846C23.3778 44.9841 23.7945 44.9841 24.1461 44.6846C24.4325 44.4242 24.719 44.1507 24.9794 43.8513C25.2138 43.5908 25.4742 43.4867 25.8257 43.4867C27.7789 43.4997 29.732 43.4737 31.6851 43.4997C32.8179 43.5127 33.8986 43.4476 34.81 42.6664C34.9012 42.5882 35.0444 42.5622 35.1746 42.5231C38.0262 41.5205 40.8777 40.5179 43.7292 39.5154C45.6303 38.8513 47.5313 38.1612 49.4323 37.5102C50.5912 37.1195 51.6068 37.9138 51.4636 39.0726C51.3854 39.6846 50.9688 40.0232 50.4479 40.2966C45.3178 42.9398 40.2006 45.596 35.0705 48.2523C33.9637 48.8252 32.8049 49.1116 31.5549 49.1116C27.1799 49.0986 22.8049 49.0986 18.4169 49.1116C16.6071 49.1246 15.0316 48.5648 13.6904 47.3669C13.3649 47.0804 13.0264 46.9632 12.5837 46.9632C9.75817 46.9762 6.91965 46.9632 4.09415 46.9762C3.89884 46.9762 3.70353 46.9893 3.52124 47.0413C3.16968 47.1455 2.98739 47.4189 3.02645 47.7835C3.06551 48.1481 3.27384 48.3825 3.65144 48.4215C3.80769 48.4476 3.97696 48.4345 4.13321 48.4345C6.8285 48.4345 9.53681 48.4346 12.2321 48.4476C12.4535 48.4476 12.7269 48.5127 12.8962 48.6429C14.5238 49.984 16.3727 50.596 18.4821 50.583C22.8049 50.5569 27.1408 50.5569 31.4637 50.583C33.0132 50.596 34.4455 50.2314 35.8126 49.5153C37.8829 48.4215 39.9663 47.3538 42.0496 46.2861C45.0964 44.7106 48.1433 43.1351 51.1901 41.5596C52.1797 41.0388 52.8177 40.2706 52.9089 39.1247C53.0651 36.9503 51.099 35.4138 49.0287 36.1169C46.9193 36.8201 44.823 37.5883 42.7266 38.3174C40.4741 39.1117 38.2215 39.906 35.9168 40.7133C35.9168 40.5049 35.9168 40.3877 35.9168 40.2836ZM27.6486 23.8775C26.1773 22.7186 24.094 22.8488 22.818 24.1769C21.5289 25.5181 21.4508 27.5884 22.7008 29.0076C24.0549 30.5441 25.4612 32.0284 26.8674 33.5258C27.4924 34.2029 28.4038 34.2159 29.0288 33.5519C30.4481 32.0284 31.8804 30.505 33.2215 28.9295C34.1851 27.8097 34.3283 26.4816 33.6772 25.1405C33.0392 23.8124 31.9325 23.1223 30.4481 23.0962C29.4715 23.0702 28.6512 23.4608 27.9221 24.1118C27.8179 24.0207 27.7398 23.9426 27.6486 23.8775ZM23.7554 27.992C23.0263 27.1717 23.1305 25.9217 23.9117 25.1535C24.6929 24.3853 25.9169 24.3332 26.7502 25.0363C26.9585 25.2186 27.1408 25.4269 27.3492 25.6092C27.7398 25.9608 28.1174 25.9608 28.508 25.5962C28.6773 25.4399 28.8335 25.2707 29.0028 25.1144C29.8622 24.3462 31.0991 24.3462 31.9194 25.1144C32.7528 25.9087 32.8309 27.1717 32.0366 28.0571C31.008 29.216 29.9533 30.3488 28.9117 31.4946C28.6122 31.8331 28.2997 32.1586 27.9611 32.5493C26.5289 31.0128 25.1226 29.5154 23.7554 27.992ZM3.78165 36.768C3.31291 36.768 3.01343 37.0675 3.00041 37.4711C2.98739 37.8747 3.28686 38.1872 3.72957 38.2263C3.85978 38.2393 3.98998 38.2263 4.12019 38.2263C6.25559 38.2263 8.37797 38.2133 10.5134 38.2263C11.0342 38.2263 11.5029 38.1091 11.9326 37.8096C12.8962 37.1456 13.9639 36.8201 15.1487 36.8331C16.7894 36.8461 18.43 36.8461 20.0836 36.8331C21.1773 36.8331 22.1148 37.1846 22.9351 37.9008C23.1305 38.07 23.443 38.2003 23.7164 38.2133C24.8231 38.2523 25.9299 38.2263 27.0367 38.2263C27.5705 38.2263 27.896 37.9398 27.9091 37.5102C27.9221 37.0544 27.5835 36.768 27.0237 36.768C26.0862 36.768 25.1356 36.781 24.1982 36.755C24.0028 36.755 23.7815 36.6768 23.6252 36.5596C22.5706 35.7393 21.3727 35.3487 20.0445 35.3617C18.43 35.3748 16.8284 35.3748 15.2139 35.3617C14.1462 35.3617 13.0394 35.4529 12.154 36.0388C11.0863 36.755 9.9665 36.807 8.76859 36.755C8.26078 36.7289 7.76599 36.755 7.25819 36.755C6.08632 36.768 4.9405 36.768 3.78165 36.768ZM15.1748 33.2394C15.3961 33.7993 15.7737 34.0206 16.2034 33.8383C16.6201 33.669 16.7373 33.2654 16.542 32.7316C14.8623 27.979 15.6826 23.6952 19.0159 19.8931C19.4195 19.4374 19.4586 19.0077 19.1201 18.6952C18.7815 18.3827 18.3518 18.4478 17.9352 18.9035C15.4873 21.5598 14.2894 24.6978 14.2373 28.1873C14.2633 29.9972 14.5368 31.6508 15.1748 33.2394ZM40.7996 23.2785C40.5912 22.7577 40.2136 22.5493 39.784 22.7186C39.3803 22.8749 39.2371 23.2915 39.4324 23.7863C40.5652 26.729 40.5652 29.6847 39.4975 32.6404C39.3022 33.1743 39.4584 33.5909 39.8751 33.7341C40.3178 33.8774 40.6694 33.669 40.8777 33.1352C41.4636 31.5727 41.7501 29.9451 41.7631 28.2134C41.7371 26.5467 41.4506 24.8801 40.7996 23.2785ZM8.5212 32.0284C8.5863 32.5362 8.92484 32.7706 9.35452 32.7055C9.78421 32.6404 10.0056 32.3149 9.94046 31.8071C9.91441 31.5336 9.84931 31.2602 9.81025 30.9868C9.49775 28.8514 9.54983 26.716 9.97952 24.5936C10.0967 24.0077 9.88837 23.617 9.41963 23.5259C8.97692 23.4348 8.62536 23.7473 8.53422 24.3332C8.35193 25.6483 8.19568 26.9634 8.03943 28.2524C8.22172 29.5545 8.35193 30.7915 8.5212 32.0284ZM47.4141 24.229C47.349 23.7212 46.9584 23.4348 46.5417 23.5129C46.112 23.604 45.9037 23.9556 45.9688 24.4894C45.9818 24.5545 45.9949 24.6196 46.0079 24.6847C46.1251 25.9478 46.3204 27.1977 46.3334 28.4608C46.3464 29.5936 46.1381 30.7264 46.0209 31.8461C45.9818 32.2888 46.1902 32.6013 46.5808 32.6925C46.9974 32.7836 47.323 32.5623 47.4532 32.1196C47.4792 32.0415 47.5053 31.9633 47.5053 31.8852C47.6355 30.6873 47.7787 29.5024 47.9219 28.2134C47.7657 26.9373 47.5964 25.5832 47.4141 24.229ZM38.9116 35.1534C38.6902 35.0753 38.3126 35.1274 38.1694 35.2836C37.6616 35.8044 37.1928 36.3774 36.7762 36.9763C36.659 37.1456 36.685 37.5492 36.8152 37.7315C36.9454 37.9138 37.271 38.044 37.5053 38.031C37.9741 38.018 39.3673 36.2471 39.3543 35.6091C39.2631 35.505 39.1199 35.2185 38.9116 35.1534Z" fill="white"/>
</svg>
