<svg width="126" height="30" viewBox="0 0 126 30" fill="none" xmlns="http://www.w3.org/2000/svg">
<path d="M8.51326 10.4786C8.51326 10.104 8.45157 9.77006 8.32819 9.47664C8.20481 9.18323 8.00123 8.92103 7.71746 8.69004C7.43985 8.45282 7.06354 8.23431 6.58853 8.03454C6.11968 7.82853 5.53362 7.62564 4.83035 7.42587C4.15793 7.23234 3.55028 7.02008 3.0074 6.7891C2.46453 6.55811 1.99877 6.29279 1.61012 5.99313C1.22764 5.69348 0.934608 5.34388 0.73103 4.94433C0.527452 4.53855 0.425663 4.06721 0.425663 3.53033C0.425663 3.00593 0.536706 2.52835 0.758791 2.0976C0.980876 1.66684 1.29241 1.29539 1.6934 0.983248C2.10056 0.671106 2.57866 0.430756 3.1277 0.2622C3.68291 0.0936427 4.29056 0.00936427 4.95065 0.00936427C5.89451 0.00936427 6.70882 0.190407 7.39358 0.552492C8.08452 0.914577 8.61814 1.40464 8.99445 2.02268C9.37693 2.63448 9.56817 3.32119 9.56817 4.08282H8.42998C8.42998 3.48975 8.29118 2.96223 8.01357 2.50026C7.74214 2.03205 7.34732 1.66684 6.82912 1.40464C6.31709 1.1362 5.69093 1.00198 4.95065 1.00198C4.21036 1.00198 3.58729 1.11747 3.08143 1.34845C2.58174 1.5732 2.20234 1.87598 1.94325 2.25679C1.69031 2.63136 1.56385 3.04963 1.56385 3.5116C1.56385 3.83623 1.62554 4.13589 1.74892 4.41057C1.8723 4.67901 2.07279 4.93185 2.3504 5.16908C2.63418 5.40006 3.0074 5.61856 3.47008 5.82458C3.93276 6.02435 4.50339 6.21475 5.18199 6.3958C5.89759 6.59557 6.533 6.81719 7.08822 7.06066C7.64343 7.30413 8.11228 7.58506 8.49476 7.90344C8.87724 8.21559 9.16718 8.58079 9.36459 8.99906C9.562 9.41733 9.6607 9.90428 9.6607 10.4599C9.6607 11.0155 9.54349 11.5149 9.30907 11.9582C9.08082 12.3952 8.75694 12.7666 8.33745 13.0725C7.92412 13.3784 7.43368 13.6125 6.86613 13.7748C6.30475 13.9372 5.69093 14.0183 5.02468 14.0183C4.42628 14.0183 3.83097 13.9403 3.23874 13.7842C2.64651 13.6281 2.10364 13.3878 1.61012 13.0632C1.12276 12.7323 0.73103 12.3078 0.434917 11.7896C0.144972 11.2715 0 10.6534 0 9.93549H1.12893C1.12893 10.5098 1.24306 10.9937 1.47131 11.387C1.69957 11.7803 2.00185 12.0986 2.37816 12.3421C2.76064 12.5856 3.18014 12.7635 3.63664 12.8759C4.09932 12.982 4.562 13.0351 5.02468 13.0351C5.73412 13.0351 6.34793 12.9289 6.86613 12.7167C7.3905 12.5044 7.79457 12.2079 8.07835 11.8271C8.36829 11.44 8.51326 10.9905 8.51326 10.4786Z" fill="white"/>
<path d="M12.6629 0.19665L17.0399 0.19665C17.9714 0.19665 18.7795 0.349599 19.4643 0.655499C20.149 0.961398 20.6765 1.414 21.0466 2.01332C21.423 2.60639 21.6111 3.3368 21.6111 4.20456C21.6111 4.84757 21.4754 5.43128 21.204 5.95568C20.9387 6.48007 20.5716 6.9202 20.1028 7.27604C19.6339 7.62564 19.0911 7.86599 18.4742 7.99709L18.0763 8.14691L13.4032 8.14691L13.3847 7.16367L17.299 7.16367C18.0022 7.16367 18.5883 7.02632 19.0571 6.75164C19.526 6.47695 19.8776 6.11487 20.112 5.66538C20.3526 5.20966 20.4729 4.72271 20.4729 4.20456C20.4729 3.58652 20.3403 3.05275 20.075 2.60327C19.8159 2.14754 19.4304 1.79794 18.9183 1.55447C18.4063 1.311 17.7801 1.18926 17.0399 1.18926L13.8011 1.18926L13.8011 13.831H12.6629L12.6629 0.19665ZM20.9819 13.831L17.4933 7.73489L18.7147 7.72552L22.1941 13.7093V13.831H20.9819Z" fill="white"/>
<path d="M26.6954 0.19665L26.6954 13.831H25.5572L25.5572 0.19665L26.6954 0.19665Z" fill="white"/>
<path d="M41.098 6.70482V12.108C40.8882 12.364 40.5643 12.6418 40.1263 12.9414C39.6883 13.2348 39.1239 13.4877 38.4329 13.6999C37.742 13.9122 36.9061 14.0183 35.9252 14.0183C35.0554 14.0183 34.2627 13.8747 33.5471 13.5876C32.8315 13.2941 32.2146 12.8665 31.6964 12.3047C31.1843 11.7428 30.7895 11.0561 30.5119 10.2445C30.2343 9.4267 30.0955 8.49339 30.0955 7.44459V6.59245C30.0955 5.54365 30.2281 4.61034 30.4934 3.79253C30.7648 2.97472 31.1504 2.28488 31.6501 1.72303C32.1498 1.16117 32.7451 0.733534 33.436 0.440121C34.127 0.146707 34.895 0 35.7402 0C36.9123 0 37.8746 0.193528 38.6273 0.580585C39.3799 0.961398 39.9536 1.49204 40.3484 2.17251C40.7494 2.84674 40.9962 3.62085 41.0887 4.49485H38.3959C38.3281 4.03288 38.1985 3.63022 38.0073 3.28686C37.816 2.9435 37.5415 2.67506 37.1837 2.48153C36.8321 2.288 36.3756 2.19124 35.8142 2.19124C35.3515 2.19124 34.9382 2.288 34.5742 2.48153C34.2164 2.66882 33.9141 2.94662 33.6674 3.31495C33.4206 3.68328 33.2325 4.13901 33.1029 4.68214C32.9734 5.22526 32.9086 5.85579 32.9086 6.57372V7.44459C32.9086 8.15628 32.9764 8.78681 33.1122 9.33618C33.2479 9.8793 33.4484 10.3382 33.7136 10.7127C33.9851 11.0811 34.3182 11.3589 34.713 11.5461C35.1078 11.7334 35.5674 11.8271 36.0918 11.8271C36.5298 11.8271 36.8938 11.7896 37.1837 11.7147C37.4798 11.6398 37.7173 11.5493 37.8962 11.4431C38.0813 11.3308 38.2232 11.2246 38.3219 11.1248V8.70877H35.7864V6.70482L41.098 6.70482Z" fill="white"/>
<path d="M54.9731 6.69545V7.34159C54.9731 8.3779 54.8343 9.30808 54.5567 10.1321C54.2791 10.9562 53.8874 11.6585 53.3815 12.2391C52.8756 12.8134 52.2711 13.2536 51.5678 13.5595C50.8707 13.8654 50.0965 14.0183 49.2452 14.0183C48.4 14.0183 47.6258 13.8654 46.9225 13.5595C46.2254 13.2536 45.6209 12.8134 45.1088 12.2391C44.5968 11.6585 44.1989 10.9562 43.9151 10.1321C43.6375 9.30808 43.4987 8.3779 43.4987 7.34159V6.69545C43.4987 5.6529 43.6375 4.72271 43.9151 3.9049C44.1927 3.08084 44.5845 2.37852 45.0903 1.79794C45.6023 1.21736 46.2069 0.774113 46.904 0.468213C47.6073 0.162314 48.3815 0.00936427 49.2267 0.00936427C50.078 0.00936427 50.8522 0.162314 51.5493 0.468213C52.2526 0.774113 52.8571 1.21736 53.363 1.79794C53.875 2.37852 54.2698 3.08084 54.5474 3.9049C54.8312 4.72271 54.9731 5.6529 54.9731 6.69545ZM52.1693 7.34159V6.67672C52.1693 5.95255 52.1045 5.31578 51.975 4.76641C51.8454 4.21704 51.6542 3.75507 51.4012 3.3805C51.1483 3.00593 50.8399 2.725 50.4759 2.53772C50.1119 2.34419 49.6955 2.24742 49.2267 2.24742C48.7578 2.24742 48.3414 2.34419 47.9774 2.53772C47.6196 2.725 47.3143 3.00593 47.0613 3.3805C46.8146 3.75507 46.6264 4.21704 46.4969 4.76641C46.3673 5.31578 46.3025 5.95255 46.3025 6.67672V7.34159C46.3025 8.05951 46.3673 8.69629 46.4969 9.2519C46.6264 9.80127 46.8176 10.2664 47.0706 10.6472C47.3235 11.0217 47.632 11.3058 47.9959 11.4993C48.3599 11.6929 48.7763 11.7896 49.2452 11.7896C49.714 11.7896 50.1304 11.6929 50.4944 11.4993C50.8584 11.3058 51.1637 11.0217 51.4105 10.6472C51.6573 10.2664 51.8454 9.80127 51.975 9.2519C52.1045 8.69629 52.1693 8.05951 52.1693 7.34159Z" fill="white"/>
<path d="M62.7872 8.97097L59.3541 8.97097V6.77973H62.7872C63.3177 6.77973 63.7495 6.69233 64.0827 6.51753C64.4158 6.33649 64.6595 6.08678 64.8137 5.76839C64.9679 5.45001 65.045 5.09104 65.045 4.6915C65.045 4.28571 64.9679 3.90802 64.8137 3.55842C64.6595 3.20882 64.4158 2.9279 64.0827 2.71564C63.7495 2.50338 63.3177 2.39725 62.7872 2.39725L60.3165 2.39725V13.831H57.5404V0.19665L62.7872 0.19665C63.8421 0.19665 64.7458 0.390178 65.4985 0.777234C66.2572 1.15805 66.8371 1.68557 67.2381 2.3598C67.6391 3.03402 67.8396 3.80502 67.8396 4.67277C67.8396 5.55301 67.6391 6.31464 67.2381 6.95765C66.8371 7.60067 66.2572 8.09697 65.4985 8.44657C64.7458 8.79617 63.8421 8.97097 62.7872 8.97097Z" fill="white"/>
<path d="M73.2755 0.19665V13.831L70.5087 13.831V0.19665L73.2755 0.19665Z" fill="white"/>
<path d="M87.4098 0.19665V13.831H84.6337L79.2204 4.6915V13.831H76.4443V0.19665L79.2204 0.19665L84.6429 9.34554V0.19665L87.4098 0.19665Z" fill="white"/>
<path d="M96.0381 2.52835L92.3737 13.831H89.4218L94.428 0.19665L96.3065 0.19665L96.0381 2.52835ZM99.0826 13.831L95.4089 2.52835L95.1128 0.19665L97.0098 0.19665L102.044 13.831H99.0826ZM98.916 8.75559V10.9562L91.8 10.9562V8.75559L98.916 8.75559Z" fill="white"/>
<path d="M108.738 0.19665V13.831H105.971V0.19665L108.738 0.19665ZM112.884 0.19665V2.39725L101.89 2.39725V0.19665L112.884 0.19665Z" fill="white"/>
<path d="M124.02 5.74966V7.9409L116.987 7.9409V5.74966L124.02 5.74966ZM117.811 0.19665V13.831L115.035 13.831V0.19665L117.811 0.19665ZM126 0.19665V13.831H123.233V0.19665L126 0.19665Z" fill="white"/>
<path d="M11.058 22.6865L11.058 28.0897C10.8482 28.3456 10.5244 28.6235 10.0864 28.9231C9.64837 29.2165 9.0839 29.4694 8.39297 29.6816C7.70204 29.8939 6.86613 30 5.88526 30C5.01542 30 4.2227 29.8564 3.50709 29.5692C2.79149 29.2758 2.17458 28.8482 1.65639 28.2863C1.14436 27.7245 0.749537 27.0378 0.471931 26.2262C0.194325 25.4084 0.0555213 24.4751 0.0555213 23.4263L0.0555213 22.5741C0.0555213 21.5253 0.188155 20.592 0.453424 19.7742C0.724861 18.9564 1.11043 18.2666 1.61012 17.7047C2.10981 17.1429 2.70512 16.7152 3.39605 16.4218C4.08698 16.1284 4.85503 15.9817 5.70019 15.9817C6.8723 15.9817 7.83467 16.1752 8.58729 16.5623C9.33991 16.9431 9.91363 17.4737 10.3085 18.1542C10.7094 18.8284 10.9562 19.6025 11.0487 20.4765L8.35595 20.4765C8.28809 20.0146 8.15854 19.6119 7.9673 19.2685C7.77606 18.9252 7.50154 18.6567 7.14374 18.4632C6.7921 18.2697 6.3356 18.1729 5.77421 18.1729C5.31154 18.1729 4.89821 18.2697 4.53424 18.4632C4.17643 18.6505 3.87415 18.9283 3.62739 19.2966C3.38063 19.665 3.19247 20.1207 3.06292 20.6638C2.93337 21.207 2.8686 21.8375 2.8686 22.5554V23.4263C2.8686 24.138 2.93646 24.7685 3.07218 25.3179C3.2079 25.861 3.40839 26.3198 3.67366 26.6944C3.9451 27.0627 4.27822 27.3405 4.67304 27.5278C5.06786 27.7151 5.52745 27.8088 6.05182 27.8088C6.48982 27.8088 6.85379 27.7713 7.14374 27.6964C7.43985 27.6215 7.67736 27.531 7.85626 27.4248C8.04133 27.3125 8.18322 27.2063 8.28193 27.1064V24.6905H5.74645V22.6865L11.058 22.6865Z" fill="white"/>
<path d="M18.4912 18.51L14.8268 29.8127H11.8749L16.8811 16.1783H18.7595L18.4912 18.51ZM21.5356 29.8127L17.8619 18.51L17.5658 16.1783H19.4628L24.4967 29.8127H21.5356ZM21.369 24.7373V26.9379H14.2531V24.7373H21.369Z" fill="white"/>
<path d="M32.735 16.1783L35.5018 16.1783L35.5018 25.1868C35.5018 26.2356 35.2797 27.1189 34.8355 27.8369C34.3975 28.5548 33.7899 29.0948 33.0126 29.4569C32.2415 29.819 31.3531 30 30.3476 30C29.342 30 28.4475 29.819 27.664 29.4569C26.8867 29.0948 26.276 28.5548 25.8318 27.8369C25.3938 27.1189 25.1748 26.2356 25.1748 25.1868V16.1783H27.9509V25.1868C27.9509 25.7986 28.0465 26.298 28.2378 26.685C28.429 27.0721 28.7035 27.3562 29.0613 27.5372C29.4253 27.7182 29.854 27.8088 30.3476 27.8088C30.8534 27.8088 31.2822 27.7182 31.6338 27.5372C31.9916 27.3562 32.263 27.0721 32.4481 26.685C32.6394 26.298 32.735 25.7986 32.735 25.1868L32.735 16.1783Z" fill="white"/>
<path d="M41.6395 29.8127H38.7061L38.7246 27.6215H41.6395C42.3674 27.6215 42.9813 27.456 43.4809 27.1252C43.9806 26.7881 44.3569 26.298 44.6099 25.655C44.869 25.012 44.9985 24.2347 44.9985 23.3233V22.6584C44.9985 21.9592 44.9245 21.3443 44.7764 20.8137C44.6345 20.283 44.4217 19.8366 44.1379 19.4746C43.8542 19.1125 43.5056 18.8409 43.0923 18.6599C42.679 18.4726 42.2039 18.3789 41.6672 18.3789H38.6506V16.1783H41.6672C42.5679 16.1783 43.3915 16.3344 44.1379 16.6466C44.8906 16.9525 45.5414 17.3926 46.0904 17.9669C46.6395 18.5413 47.0621 19.228 47.3582 20.0271C47.6605 20.8199 47.8116 21.7033 47.8116 22.6771V23.3233C47.8116 24.2909 47.6605 25.1743 47.3582 25.9734C47.0621 26.7724 46.6395 27.4592 46.0904 28.0335C45.5476 28.6016 44.8967 29.0417 44.1379 29.3539C43.3853 29.6598 42.5525 29.8127 41.6395 29.8127ZM40.2792 16.1783L40.2792 29.8127H37.5031L37.5031 16.1783H40.2792Z" fill="white"/>
<path d="M52.4965 16.1783L52.4965 29.8127H49.7297L49.7297 16.1783H52.4965Z" fill="white"/>
<path d="M56.4041 16.1783L59.2171 22.3962L62.0302 16.1783H65.0561L60.6237 24.8497V29.8127H57.8106V24.8497L53.3689 16.1783L56.4041 16.1783Z" fill="white"/>
<path d="M70.2592 18.51L66.5948 29.8127H63.6429L68.6491 16.1783H70.5276L70.2592 18.51ZM73.3036 29.8127L69.63 18.51L69.3339 16.1783H71.2308L76.2648 29.8127H73.3036ZM73.1371 24.7373V26.9379H66.0211V24.7373H73.1371Z" fill="white"/>
<path d="M78.0903 16.1783H79.2378L84.2162 28.1833L89.2038 16.1783H90.342L84.6511 29.8127H83.7813L78.0903 16.1783ZM77.7387 16.1783H78.7473L78.8676 23.857V29.8127H77.7387V16.1783ZM89.7035 16.1783H90.7122V29.8127H89.574V23.857L89.7035 16.1783Z" fill="white"/>
<path d="M98.4415 16.993L93.7777 29.8127H92.5932L97.6827 16.1783H98.5062L98.4415 16.993ZM102.68 29.8127L98.0065 16.993L97.9418 16.1783H98.7653L103.864 29.8127H102.68ZM101.847 24.9995V25.9921L94.6938 25.9921V24.9995L101.847 24.9995Z" fill="white"/>
<path d="M108.891 16.1783V29.8127H107.762V16.1783H108.891ZM113.509 16.1783V17.1709H103.154V16.1783H113.509Z" fill="white"/>
<path d="M124.477 22.2932V23.2765L116.287 23.2765V22.2932L124.477 22.2932ZM116.556 16.1783V29.8127H115.418V16.1783H116.556ZM125.393 16.1783V29.8127H124.255V16.1783H125.393Z" fill="white"/>
</svg>
