<svg width="56" height="56" viewBox="0 0 56 56" fill="none" xmlns="http://www.w3.org/2000/svg">
<path d="M51 16.3643C50.9121 17.1467 50.8418 17.9291 50.7451 18.7115C50.0947 23.6431 48.3105 28.1264 45.3838 32.1438C45.0059 32.6624 44.9268 33.0756 45.085 33.7173C45.999 37.3919 45.1025 40.6181 42.4746 43.3344C40.7344 45.1366 38.9414 46.8859 37.166 48.6529C36.6035 49.2155 36.1553 49.2155 35.584 48.6441C33.457 46.5255 31.3301 44.4069 29.2207 42.262C28.9482 41.9895 28.6934 41.9103 28.333 41.9631C26.8389 42.1828 25.3447 42.3499 23.8506 42.5872C23.2969 42.6751 22.875 42.5433 22.5234 42.1301C22.4092 41.9982 22.3037 41.8576 22.1191 41.6202C21.9697 41.8312 21.8906 41.9807 21.7764 42.0949C19.5088 44.363 17.2324 46.631 14.9473 48.8814C14.7451 49.0836 14.4551 49.2506 14.1738 49.3298C13.8398 49.4177 13.4971 49.2506 13.3828 48.9254C13.2949 48.6617 13.3213 48.3452 13.374 48.0639C13.4092 47.8969 13.5938 47.765 13.7256 47.6243C15.9844 45.3651 18.252 43.1147 20.5195 40.8642C20.6338 40.75 20.7744 40.6708 20.8799 40.6005C19.3594 39.0885 17.918 37.638 16.3623 36.0908C16.3096 36.1787 16.248 36.337 16.1338 36.4513C14.5869 38.016 13.04 39.572 11.4844 41.128C11.3525 41.2598 11.2119 41.3917 11.0537 41.4972C10.7197 41.7081 10.2803 41.6554 10.0078 41.3829C9.72656 41.1104 9.66504 40.6708 9.87598 40.3368C9.97266 40.1786 10.1133 40.0379 10.2451 39.906C11.792 38.3413 13.3389 36.7853 14.8945 35.2293C15.0088 35.1151 15.1582 35.0359 15.3779 34.8865C14.2354 34.2624 14.332 33.3745 14.499 32.4163C14.7188 31.1944 14.833 29.9549 15.0264 28.7242C15.0879 28.3286 15.0088 28.0561 14.71 27.7572C12.6006 25.6826 10.5176 23.5816 8.42578 21.4894C7.75781 20.8213 7.75781 20.4257 8.43457 19.7488C10.2363 17.9467 11.9941 16.1006 13.8574 14.36C16.7051 11.7052 20.0449 10.958 23.7803 12.0568C24.0615 12.1448 24.2373 12.0568 24.4482 11.8986C27.8672 9.33171 31.6641 7.56476 35.8564 6.68568C37.2803 6.38679 38.748 6.27251 40.1982 6.07033C40.3389 6.05274 40.4795 6.02637 40.6289 6C41.5957 6 42.5625 6 43.5293 6C43.6436 6.01758 43.7578 6.05274 43.8721 6.06154C45.6826 6.15823 47.4668 6.45712 49.2334 6.87908C49.6641 6.98457 49.9893 7.18676 50.0859 7.64388C50.2793 8.58449 50.499 9.5251 50.6484 10.4745C50.8066 11.4679 50.8857 12.47 51 13.4634C51 14.4304 51 15.3973 51 16.3643ZM42.4834 7.75816C38.7656 7.73178 35.0215 8.44384 31.6816 9.85915C24.1494 13.0502 18.9111 18.4741 16.0547 26.166C15.9668 26.3946 15.9756 26.5528 16.1689 26.7374C20.8799 31.4317 25.5732 36.1348 30.2754 40.8466C30.4512 41.0225 30.5918 41.0401 30.8115 40.9521C31.5674 40.6357 32.3408 40.3632 33.0791 40.0203C39.0205 37.2512 43.459 32.9262 46.3506 27.0539C49.1982 21.2608 49.9541 15.1776 48.5742 8.84821C48.5127 8.56691 48.3896 8.479 48.126 8.41746C46.166 7.98672 44.1973 7.78453 42.4834 7.75816ZM10.1133 20.5487C11.625 22.0608 13.1016 23.5376 14.6045 25.0408C16.2832 20.6015 18.8936 16.7599 22.4795 13.4985C20.2471 13.0766 18.2432 13.4018 16.4238 14.5798C15.7295 15.0281 15.0967 15.5907 14.5078 16.1709C13.0137 17.6214 11.5547 19.1071 10.1133 20.5487ZM36.4453 46.8683C36.4453 46.8683 36.498 46.8332 36.5332 46.798C38.1064 45.2245 39.6885 43.6597 41.2529 42.0774C42.4131 40.9082 43.1777 39.5105 43.5029 37.8842C43.7227 36.7941 43.7402 35.704 43.4678 34.5349C40.2158 38.1127 36.3838 40.7236 31.9629 42.3938C33.457 43.8795 34.9336 45.3563 36.4453 46.8683ZM16.6436 29.8494C16.5029 30.8867 16.3447 31.968 16.2129 33.0492C16.1953 33.1899 16.292 33.3921 16.3975 33.4976C18.7617 35.8799 21.1348 38.2446 23.5078 40.6093C23.6045 40.706 23.7891 40.8027 23.9121 40.7851C25.0107 40.6533 26.1006 40.495 27.1465 40.3456C23.6396 36.8468 20.1416 33.3481 16.6436 29.8494ZM6 51C6.37793 51 6.76465 51 7.14258 51C7.43262 50.7363 7.74023 50.4901 8.02148 50.2176C10.0781 48.1694 12.126 46.1211 14.1738 44.0729C14.7627 43.4839 14.8418 43.0092 14.4463 42.5872C14.0332 42.1477 13.5322 42.2268 12.9346 42.8246C10.8867 44.8728 8.83008 46.9211 6.79102 48.9781C6.51855 49.2594 6.27246 49.5671 6.00879 49.8572C6 50.2352 6 50.622 6 51ZM7.33594 43.1938C7.34473 43.6597 7.75781 44.0553 8.22363 44.0553C8.68945 44.0465 9.08496 43.6421 9.07617 43.1762C9.06738 42.7103 8.66309 42.3059 8.19727 42.3147C7.74023 42.3147 7.33594 42.7367 7.33594 43.1938ZM29.6865 22.2893C28.7109 23.2651 27.7266 24.2233 26.7773 25.2166C26.5752 25.4276 26.3643 25.7705 26.3818 26.043C26.3994 26.3067 26.6367 26.6408 26.874 26.7814C27.252 27.0188 27.6299 26.8341 27.9375 26.5265C29.2207 25.243 30.5127 23.9596 31.7871 22.6673C32.2881 22.1575 32.2881 21.6915 31.7783 21.1817C31.418 20.8213 31.04 20.4872 30.583 20.0652C33.5361 19.2741 36.3486 18.5181 39.2402 17.7445C38.4668 20.6279 37.7109 23.4497 36.9111 26.4298C36.5332 26.0078 36.2432 25.6562 35.9268 25.3397C35.2676 24.6628 34.8457 24.6628 34.1865 25.3221C32.0156 27.4935 29.8359 29.6736 27.665 31.8537C27.0938 32.4251 27.0146 32.9262 27.4277 33.3393C27.8408 33.7525 28.333 33.6734 28.9131 33.0932C30.8379 31.168 32.7715 29.2428 34.6875 27.3088C34.8018 27.1946 34.8721 27.0451 34.9863 26.8693C35.5928 27.4759 36.0938 27.9857 36.5947 28.4956C37.3242 29.2164 38.0361 29.0231 38.2998 28.0297C39.293 24.3288 40.2861 20.6279 41.2705 16.9269C41.5078 16.0215 40.9717 15.4677 40.0664 15.7138C36.3486 16.7072 32.6396 17.7005 28.9219 18.7027C27.9551 18.9664 27.7705 19.6872 28.4824 20.3905C28.9922 20.9004 29.5107 21.3927 30.082 21.9377C29.9062 22.0959 29.792 22.1838 29.6865 22.2893ZM25.1602 28.9264C25.1602 28.4604 24.7646 28.0649 24.2988 28.0561C23.8242 28.0473 23.4023 28.478 23.4111 28.9527C23.4199 29.4098 23.8418 29.8054 24.2988 29.8054C24.7471 29.8054 25.1602 29.3923 25.1602 28.9264Z" fill="white"/>
</svg>
